<svg width="2886" height="466" viewBox="0 0 2886 466" fill="none" xmlns="http://www.w3.org/2000/svg">
<path d="M147 326H2739.02" stroke="#B19BC7" stroke-width="27" stroke-linecap="round"/>
<path d="M284.513 118.5C288.98 118.5 292.48 119.567 295.013 121.7C297.547 123.833 298.813 126.767 298.813 130.5C298.813 134.233 297.547 137.167 295.013 139.3C292.48 141.4 288.98 142.45 284.513 142.45H275.113V153.5H271.413V118.5H284.513ZM284.413 139.2C287.88 139.2 290.53 138.45 292.363 136.95C294.197 135.417 295.113 133.267 295.113 130.5C295.113 127.667 294.197 125.5 292.363 124C290.53 122.467 287.88 121.7 284.413 121.7H275.113V139.2H284.413ZM308.78 132.35C309.613 130.583 310.847 129.25 312.48 128.35C314.147 127.45 316.197 127 318.63 127V130.45L317.78 130.4C315.013 130.4 312.847 131.25 311.28 132.95C309.713 134.65 308.93 137.033 308.93 140.1V153.5H305.38V127.2H308.78V132.35ZM335.564 153.75C333.03 153.75 330.747 153.183 328.714 152.05C326.68 150.883 325.08 149.283 323.914 147.25C322.747 145.217 322.164 142.917 322.164 140.35C322.164 137.783 322.747 135.483 323.914 133.45C325.08 131.417 326.68 129.833 328.714 128.7C330.747 127.567 333.03 127 335.564 127C338.097 127 340.38 127.567 342.414 128.7C344.447 129.833 346.03 131.417 347.164 133.45C348.33 135.483 348.914 137.783 348.914 140.35C348.914 142.917 348.33 145.217 347.164 147.25C346.03 149.283 344.447 150.883 342.414 152.05C340.38 153.183 338.097 153.75 335.564 153.75ZM335.564 150.6C337.43 150.6 339.097 150.183 340.564 149.35C342.064 148.483 343.23 147.267 344.064 145.7C344.897 144.133 345.314 142.35 345.314 140.35C345.314 138.35 344.897 136.567 344.064 135C343.23 133.433 342.064 132.233 340.564 131.4C339.097 130.533 337.43 130.1 335.564 130.1C333.697 130.1 332.014 130.533 330.514 131.4C329.047 132.233 327.88 133.433 327.014 135C326.18 136.567 325.764 138.35 325.764 140.35C325.764 142.35 326.18 144.133 327.014 145.7C327.88 147.267 329.047 148.483 330.514 149.35C332.014 150.183 333.697 150.6 335.564 150.6ZM352.261 163.45C351.161 163.45 350.128 163.3 349.161 163C348.161 162.733 347.345 162.317 346.711 161.75L347.961 159.05C348.995 159.95 350.361 160.4 352.061 160.4C353.461 160.4 354.528 159.983 355.261 159.15C356.028 158.317 356.411 157.083 356.411 155.45V127.2H359.961V155.45C359.961 157.917 359.295 159.867 357.961 161.3C356.628 162.733 354.728 163.45 352.261 163.45ZM358.211 121.4C357.478 121.4 356.861 121.15 356.361 120.65C355.861 120.15 355.611 119.55 355.611 118.85C355.611 118.183 355.861 117.6 356.361 117.1C356.861 116.6 357.478 116.35 358.211 116.35C358.945 116.35 359.561 116.6 360.061 117.1C360.561 117.567 360.811 118.133 360.811 118.8C360.811 119.533 360.561 120.15 360.061 120.65C359.561 121.15 358.945 121.4 358.211 121.4ZM381.132 150.6C382.765 150.6 384.265 150.317 385.632 149.75C387.032 149.15 388.215 148.283 389.182 147.15L391.182 149.45C390.015 150.85 388.565 151.917 386.832 152.65C385.099 153.383 383.182 153.75 381.082 153.75C378.382 153.75 375.982 153.183 373.882 152.05C371.782 150.883 370.149 149.283 368.982 147.25C367.815 145.217 367.232 142.917 367.232 140.35C367.232 137.783 367.782 135.483 368.882 133.45C370.015 131.417 371.565 129.833 373.532 128.7C375.499 127.567 377.732 127 380.232 127C382.565 127 384.665 127.533 386.532 128.6C388.432 129.667 389.932 131.15 391.032 133.05C392.165 134.95 392.765 137.117 392.832 139.55L371.232 143.75C371.899 145.883 373.099 147.567 374.832 148.8C376.599 150 378.699 150.6 381.132 150.6ZM380.232 130.05C378.399 130.05 376.749 130.483 375.282 131.35C373.849 132.183 372.715 133.367 371.882 134.9C371.082 136.4 370.682 138.133 370.682 140.1C370.682 140.6 370.699 140.967 370.732 141.2L389.282 137.6C388.882 135.4 387.865 133.6 386.232 132.2C384.599 130.767 382.599 130.05 380.232 130.05ZM410.958 153.75C408.358 153.75 406.024 153.183 403.958 152.05C401.924 150.917 400.324 149.333 399.158 147.3C397.991 145.233 397.408 142.917 397.408 140.35C397.408 137.783 397.991 135.483 399.158 133.45C400.324 131.417 401.924 129.833 403.958 128.7C406.024 127.567 408.358 127 410.958 127C413.224 127 415.241 127.45 417.008 128.35C418.808 129.217 420.224 130.5 421.258 132.2L418.608 134C417.741 132.7 416.641 131.733 415.308 131.1C413.974 130.433 412.524 130.1 410.958 130.1C409.058 130.1 407.341 130.533 405.808 131.4C404.308 132.233 403.124 133.433 402.258 135C401.424 136.567 401.008 138.35 401.008 140.35C401.008 142.383 401.424 144.183 402.258 145.75C403.124 147.283 404.308 148.483 405.808 149.35C407.341 150.183 409.058 150.6 410.958 150.6C412.524 150.6 413.974 150.283 415.308 149.65C416.641 149.017 417.741 148.05 418.608 146.75L421.258 148.55C420.224 150.25 418.808 151.55 417.008 152.45C415.208 153.317 413.191 153.75 410.958 153.75ZM440.791 151.9C440.124 152.5 439.308 152.967 438.341 153.3C437.374 153.6 436.358 153.75 435.291 153.75C432.824 153.75 430.924 153.083 429.591 151.75C428.258 150.417 427.591 148.533 427.591 146.1V121.45H431.141V127.2H439.091V130.2H431.141V145.9C431.141 147.467 431.524 148.667 432.291 149.5C433.058 150.3 434.174 150.7 435.641 150.7C437.241 150.7 438.541 150.25 439.541 149.35L440.791 151.9ZM285.901 198.05L278.751 205.3V214.5H275.051V179.5H278.751V200.65L299.301 179.5H303.551L288.401 195.35L304.601 214.5H300.201L285.901 198.05ZM309.36 188.2H312.91V214.5H309.36V188.2ZM311.16 182.45C310.426 182.45 309.81 182.2 309.31 181.7C308.81 181.2 308.56 180.6 308.56 179.9C308.56 179.233 308.81 178.65 309.31 178.15C309.81 177.65 310.426 177.4 311.16 177.4C311.893 177.4 312.51 177.65 313.01 178.15C313.51 178.617 313.76 179.183 313.76 179.85C313.76 180.583 313.51 181.2 313.01 181.7C312.51 182.2 311.893 182.45 311.16 182.45ZM333.687 214.75C331.087 214.75 328.754 214.183 326.687 213.05C324.654 211.917 323.054 210.333 321.887 208.3C320.721 206.233 320.137 203.917 320.137 201.35C320.137 198.783 320.721 196.483 321.887 194.45C323.054 192.417 324.654 190.833 326.687 189.7C328.754 188.567 331.087 188 333.687 188C335.954 188 337.971 188.45 339.737 189.35C341.537 190.217 342.954 191.5 343.987 193.2L341.337 195C340.471 193.7 339.371 192.733 338.037 192.1C336.704 191.433 335.254 191.1 333.687 191.1C331.787 191.1 330.071 191.533 328.537 192.4C327.037 193.233 325.854 194.433 324.987 196C324.154 197.567 323.737 199.35 323.737 201.35C323.737 203.383 324.154 205.183 324.987 206.75C325.854 208.283 327.037 209.483 328.537 210.35C330.071 211.183 331.787 211.6 333.687 211.6C335.254 211.6 336.704 211.283 338.037 210.65C339.371 210.017 340.471 209.05 341.337 207.75L343.987 209.55C342.954 211.25 341.537 212.55 339.737 213.45C337.937 214.317 335.921 214.75 333.687 214.75ZM360.32 201.3L354.12 207V214.5H350.57V177.4H354.12V202.55L369.82 188.2H374.22L362.97 198.95L375.27 214.5H370.92L360.32 201.3ZM390.276 214.75C387.742 214.75 385.459 214.183 383.426 213.05C381.392 211.883 379.792 210.283 378.626 208.25C377.459 206.217 376.876 203.917 376.876 201.35C376.876 198.783 377.459 196.483 378.626 194.45C379.792 192.417 381.392 190.833 383.426 189.7C385.459 188.567 387.742 188 390.276 188C392.809 188 395.092 188.567 397.126 189.7C399.159 190.833 400.742 192.417 401.876 194.45C403.042 196.483 403.626 198.783 403.626 201.35C403.626 203.917 403.042 206.217 401.876 208.25C400.742 210.283 399.159 211.883 397.126 213.05C395.092 214.183 392.809 214.75 390.276 214.75ZM390.276 211.6C392.142 211.6 393.809 211.183 395.276 210.35C396.776 209.483 397.942 208.267 398.776 206.7C399.609 205.133 400.026 203.35 400.026 201.35C400.026 199.35 399.609 197.567 398.776 196C397.942 194.433 396.776 193.233 395.276 192.4C393.809 191.533 392.142 191.1 390.276 191.1C388.409 191.1 386.726 191.533 385.226 192.4C383.759 193.233 382.592 194.433 381.726 196C380.892 197.567 380.476 199.35 380.476 201.35C380.476 203.35 380.892 205.133 381.726 206.7C382.592 208.267 383.759 209.483 385.226 210.35C386.726 211.183 388.409 211.6 390.276 211.6ZM418.973 180.15C417.44 180.15 416.273 180.567 415.473 181.4C414.707 182.233 414.323 183.467 414.323 185.1V188.2H422.423V191.2H414.423V214.5H410.873V184.95C410.873 182.55 411.557 180.65 412.923 179.25C414.323 177.85 416.29 177.15 418.823 177.15C419.823 177.15 420.79 177.3 421.723 177.6C422.657 177.867 423.44 178.267 424.073 178.8L422.873 181.45C421.84 180.583 420.54 180.15 418.973 180.15ZM435.331 180.15C433.797 180.15 432.631 180.567 431.831 181.4C431.064 182.233 430.681 183.467 430.681 185.1V188.2H438.781V191.2H430.781V214.5H427.231V184.95C427.231 182.55 427.914 180.65 429.281 179.25C430.681 177.85 432.647 177.15 435.181 177.15C436.181 177.15 437.147 177.3 438.081 177.6C439.014 177.867 439.797 178.267 440.431 178.8L439.231 181.45C438.197 180.583 436.897 180.15 435.331 180.15Z" fill="black"/>
<circle cx="353.995" cy="323.75" r="45" fill="#7D00FB" stroke="white" stroke-width="22.5"/>
<path d="M684.136 118V149.5H680.941V144.19C678.871 147.91 675.346 149.77 670.366 149.77C666.616 149.77 663.676 148.645 661.546 146.395C659.416 144.145 658.351 140.935 658.351 136.765V118H661.681V136.675C661.681 140.005 662.491 142.525 664.111 144.235C665.761 145.945 668.056 146.8 670.996 146.8C674.086 146.8 676.486 145.9 678.196 144.1C679.936 142.27 680.806 139.54 680.806 135.91V118H684.136ZM700.062 149.725C698.142 149.725 696.297 149.455 694.527 148.915C692.787 148.345 691.422 147.64 690.432 146.8L691.872 144.28C692.862 145.06 694.107 145.705 695.607 146.215C697.107 146.695 698.667 146.935 700.287 146.935C702.447 146.935 704.037 146.605 705.057 145.945C706.107 145.255 706.632 144.295 706.632 143.065C706.632 142.195 706.347 141.52 705.777 141.04C705.207 140.53 704.487 140.155 703.617 139.915C702.747 139.645 701.592 139.39 700.152 139.15C698.232 138.79 696.687 138.43 695.517 138.07C694.347 137.68 693.342 137.035 692.502 136.135C691.692 135.235 691.287 133.99 691.287 132.4C691.287 130.42 692.112 128.8 693.762 127.54C695.412 126.28 697.707 125.65 700.647 125.65C702.177 125.65 703.707 125.86 705.237 126.28C706.767 126.67 708.027 127.195 709.017 127.855L707.622 130.42C705.672 129.07 703.347 128.395 700.647 128.395C698.607 128.395 697.062 128.755 696.012 129.475C694.992 130.195 694.482 131.14 694.482 132.31C694.482 133.21 694.767 133.93 695.337 134.47C695.937 135.01 696.672 135.415 697.542 135.685C698.412 135.925 699.612 136.18 701.142 136.45C703.032 136.81 704.547 137.17 705.687 137.53C706.827 137.89 707.802 138.505 708.612 139.375C709.422 140.245 709.827 141.445 709.827 142.975C709.827 145.045 708.957 146.695 707.217 147.925C705.507 149.125 703.122 149.725 700.062 149.725ZM725.859 146.89C727.329 146.89 728.679 146.635 729.909 146.125C731.169 145.585 732.234 144.805 733.104 143.785L734.904 145.855C733.854 147.115 732.549 148.075 730.989 148.735C729.429 149.395 727.704 149.725 725.814 149.725C723.384 149.725 721.224 149.215 719.334 148.195C717.444 147.145 715.974 145.705 714.924 143.875C713.874 142.045 713.349 139.975 713.349 137.665C713.349 135.355 713.844 133.285 714.834 131.455C715.854 129.625 717.249 128.2 719.019 127.18C720.789 126.16 722.799 125.65 725.049 125.65C727.149 125.65 729.039 126.13 730.719 127.09C732.429 128.05 733.779 129.385 734.769 131.095C735.789 132.805 736.329 134.755 736.389 136.945L716.949 140.725C717.549 142.645 718.629 144.16 720.189 145.27C721.779 146.35 723.669 146.89 725.859 146.89ZM725.049 128.395C723.399 128.395 721.914 128.785 720.594 129.565C719.304 130.315 718.284 131.38 717.534 132.76C716.814 134.11 716.454 135.67 716.454 137.44C716.454 137.89 716.469 138.22 716.499 138.43L733.194 135.19C732.834 133.21 731.919 131.59 730.449 130.33C728.979 129.04 727.179 128.395 725.049 128.395ZM745.952 130.465C746.702 128.875 747.812 127.675 749.282 126.865C750.782 126.055 752.627 125.65 754.817 125.65V128.755L754.052 128.71C751.562 128.71 749.612 129.475 748.202 131.005C746.792 132.535 746.087 134.68 746.087 137.44V149.5H742.892V125.83H745.952V130.465ZM594.745 175.88V201.62H601.135V204.5H585.07V201.62H591.46V175.88H585.07V173H601.135V175.88H594.745ZM619.644 180.65C622.614 180.65 624.969 181.52 626.709 183.26C628.479 184.97 629.364 187.475 629.364 190.775V204.5H626.169V191.09C626.169 188.63 625.554 186.755 624.324 185.465C623.094 184.175 621.339 183.53 619.059 183.53C616.509 183.53 614.484 184.295 612.984 185.825C611.514 187.325 610.779 189.41 610.779 192.08V204.5H607.584V180.83H610.644V185.195C611.514 183.755 612.714 182.645 614.244 181.865C615.804 181.055 617.604 180.65 619.644 180.65ZM649.693 203.06C649.093 203.6 648.358 204.02 647.488 204.32C646.618 204.59 645.703 204.725 644.743 204.725C642.523 204.725 640.813 204.125 639.613 202.925C638.413 201.725 637.813 200.03 637.813 197.84V175.655H641.008V180.83H648.163V183.53H641.008V197.66C641.008 199.07 641.353 200.15 642.043 200.9C642.733 201.62 643.738 201.98 645.058 201.98C646.498 201.98 647.668 201.575 648.568 200.765L649.693 203.06ZM664.775 201.89C666.245 201.89 667.595 201.635 668.825 201.125C670.085 200.585 671.15 199.805 672.02 198.785L673.82 200.855C672.77 202.115 671.465 203.075 669.905 203.735C668.345 204.395 666.62 204.725 664.73 204.725C662.3 204.725 660.14 204.215 658.25 203.195C656.36 202.145 654.89 200.705 653.84 198.875C652.79 197.045 652.265 194.975 652.265 192.665C652.265 190.355 652.76 188.285 653.75 186.455C654.77 184.625 656.165 183.2 657.935 182.18C659.705 181.16 661.715 180.65 663.965 180.65C666.065 180.65 667.955 181.13 669.635 182.09C671.345 183.05 672.695 184.385 673.685 186.095C674.705 187.805 675.245 189.755 675.305 191.945L655.865 195.725C656.465 197.645 657.545 199.16 659.105 200.27C660.695 201.35 662.585 201.89 664.775 201.89ZM663.965 183.395C662.315 183.395 660.83 183.785 659.51 184.565C658.22 185.315 657.2 186.38 656.45 187.76C655.73 189.11 655.37 190.67 655.37 192.44C655.37 192.89 655.385 193.22 655.415 193.43L672.11 190.19C671.75 188.21 670.835 186.59 669.365 185.33C667.895 184.04 666.095 183.395 663.965 183.395ZM684.868 185.465C685.618 183.875 686.728 182.675 688.198 181.865C689.698 181.055 691.543 180.65 693.733 180.65V183.755L692.968 183.71C690.478 183.71 688.528 184.475 687.118 186.005C685.708 187.535 685.003 189.68 685.003 192.44V204.5H681.808V180.83H684.868V185.465ZM720.419 180.83L709.889 204.5H706.604L696.119 180.83H699.449L708.314 200.99L717.269 180.83H720.419ZM724.918 180.83H728.113V204.5H724.918V180.83ZM726.538 175.655C725.878 175.655 725.323 175.43 724.873 174.98C724.423 174.53 724.198 173.99 724.198 173.36C724.198 172.76 724.423 172.235 724.873 171.785C725.323 171.335 725.878 171.11 726.538 171.11C727.198 171.11 727.753 171.335 728.203 171.785C728.653 172.205 728.878 172.715 728.878 173.315C728.878 173.975 728.653 174.53 728.203 174.98C727.753 175.43 727.198 175.655 726.538 175.655ZM747.128 201.89C748.598 201.89 749.948 201.635 751.178 201.125C752.438 200.585 753.503 199.805 754.373 198.785L756.173 200.855C755.123 202.115 753.818 203.075 752.258 203.735C750.698 204.395 748.973 204.725 747.083 204.725C744.653 204.725 742.493 204.215 740.603 203.195C738.713 202.145 737.243 200.705 736.193 198.875C735.143 197.045 734.618 194.975 734.618 192.665C734.618 190.355 735.113 188.285 736.103 186.455C737.123 184.625 738.518 183.2 740.288 182.18C742.058 181.16 744.068 180.65 746.318 180.65C748.418 180.65 750.308 181.13 751.988 182.09C753.698 183.05 755.048 184.385 756.038 186.095C757.058 187.805 757.598 189.755 757.658 191.945L738.218 195.725C738.818 197.645 739.898 199.16 741.458 200.27C743.048 201.35 744.938 201.89 747.128 201.89ZM746.318 183.395C744.668 183.395 743.183 183.785 741.863 184.565C740.573 185.315 739.553 186.38 738.803 187.76C738.083 189.11 737.723 190.67 737.723 192.44C737.723 192.89 737.738 193.22 737.768 193.43L754.463 190.19C754.103 188.21 753.188 186.59 751.718 185.33C750.248 184.04 748.448 183.395 746.318 183.395ZM800.656 180.83V193.925C800.656 197.435 799.816 200.12 798.136 201.98C796.456 203.81 793.981 204.725 790.711 204.725C788.641 204.725 786.901 204.335 785.491 203.555C784.111 202.745 783.046 201.47 782.296 199.73C781.546 201.44 780.481 202.7 779.101 203.51C777.721 204.32 775.981 204.725 773.881 204.725C770.611 204.725 768.136 203.81 766.456 201.98C764.776 200.12 763.936 197.435 763.936 193.925V180.83H767.131V193.655C767.131 196.445 767.671 198.515 768.751 199.865C769.831 201.185 771.541 201.845 773.881 201.845C776.191 201.845 777.901 201.17 779.011 199.82C780.151 198.47 780.721 196.385 780.721 193.565V180.83H783.916V193.565C783.916 196.385 784.471 198.47 785.581 199.82C786.691 201.17 788.416 201.845 790.756 201.845C793.036 201.845 794.716 201.185 795.796 199.865C796.906 198.515 797.461 196.445 797.461 193.655V180.83H800.656ZM815.682 204.725C813.762 204.725 811.917 204.455 810.147 203.915C808.407 203.345 807.042 202.64 806.052 201.8L807.492 199.28C808.482 200.06 809.727 200.705 811.227 201.215C812.727 201.695 814.287 201.935 815.907 201.935C818.067 201.935 819.657 201.605 820.677 200.945C821.727 200.255 822.252 199.295 822.252 198.065C822.252 197.195 821.967 196.52 821.397 196.04C820.827 195.53 820.107 195.155 819.237 194.915C818.367 194.645 817.212 194.39 815.772 194.15C813.852 193.79 812.307 193.43 811.137 193.07C809.967 192.68 808.962 192.035 808.122 191.135C807.312 190.235 806.907 188.99 806.907 187.4C806.907 185.42 807.732 183.8 809.382 182.54C811.032 181.28 813.327 180.65 816.267 180.65C817.797 180.65 819.327 180.86 820.857 181.28C822.387 181.67 823.647 182.195 824.637 182.855L823.242 185.42C821.292 184.07 818.967 183.395 816.267 183.395C814.227 183.395 812.682 183.755 811.632 184.475C810.612 185.195 810.102 186.14 810.102 187.31C810.102 188.21 810.387 188.93 810.957 189.47C811.557 190.01 812.292 190.415 813.162 190.685C814.032 190.925 815.232 191.18 816.762 191.45C818.652 191.81 820.167 192.17 821.307 192.53C822.447 192.89 823.422 193.505 824.232 194.375C825.042 195.245 825.447 196.445 825.447 197.975C825.447 200.045 824.577 201.695 822.837 202.925C821.127 204.125 818.742 204.725 815.682 204.725Z" fill="black"/>
<circle cx="704.995" cy="325.75" r="45" fill="#7D00FB" stroke="white" stroke-width="22.5"/>
<path d="M979.875 189.77C977.535 189.77 975.285 189.395 973.125 188.645C970.995 187.895 969.345 186.905 968.175 185.675L969.48 183.11C970.62 184.25 972.135 185.18 974.025 185.9C975.915 186.59 977.865 186.935 979.875 186.935C982.695 186.935 984.81 186.425 986.22 185.405C987.63 184.355 988.335 183.005 988.335 181.355C988.335 180.095 987.945 179.09 987.165 178.34C986.415 177.59 985.485 177.02 984.375 176.63C983.265 176.21 981.72 175.76 979.74 175.28C977.37 174.68 975.48 174.11 974.07 173.57C972.66 173 971.445 172.145 970.425 171.005C969.435 169.865 968.94 168.32 968.94 166.37C968.94 164.78 969.36 163.34 970.2 162.05C971.04 160.73 972.33 159.68 974.07 158.9C975.81 158.12 977.97 157.73 980.55 157.73C982.35 157.73 984.105 157.985 985.815 158.495C987.555 158.975 989.055 159.65 990.315 160.52L989.19 163.175C987.87 162.305 986.46 161.66 984.96 161.24C983.46 160.79 981.99 160.565 980.55 160.565C977.79 160.565 975.705 161.105 974.295 162.185C972.915 163.235 972.225 164.6 972.225 166.28C972.225 167.54 972.6 168.56 973.35 169.34C974.13 170.09 975.09 170.675 976.23 171.095C977.4 171.485 978.96 171.92 980.91 172.4C983.22 172.97 985.08 173.54 986.49 174.11C987.93 174.65 989.145 175.49 990.135 176.63C991.125 177.74 991.62 179.255 991.62 181.175C991.62 182.765 991.185 184.22 990.315 185.54C989.475 186.83 988.17 187.865 986.4 188.645C984.63 189.395 982.455 189.77 979.875 189.77ZM1019.53 165.83V189.5H1016.47V185.18C1015.63 186.62 1014.48 187.745 1013.01 188.555C1011.54 189.335 1009.86 189.725 1007.97 189.725C1004.88 189.725 1002.43 188.87 1000.63 187.16C998.861 185.42 997.976 182.885 997.976 179.555V165.83H1001.17V179.24C1001.17 181.73 1001.79 183.62 1003.02 184.91C1004.25 186.2 1006 186.845 1008.28 186.845C1010.77 186.845 1012.74 186.095 1014.18 184.595C1015.62 183.065 1016.34 180.95 1016.34 178.25V165.83H1019.53ZM1031.54 170.465C1032.29 168.875 1033.4 167.675 1034.87 166.865C1036.37 166.055 1038.21 165.65 1040.4 165.65V168.755L1039.64 168.71C1037.15 168.71 1035.2 169.475 1033.79 171.005C1032.38 172.535 1031.67 174.68 1031.67 177.44V189.5H1028.48V165.83H1031.54V170.465ZM1067.09 165.83L1056.56 189.5H1053.27L1042.79 165.83H1046.12L1054.98 185.99L1063.94 165.83H1067.09ZM1081.06 186.89C1082.53 186.89 1083.88 186.635 1085.11 186.125C1086.37 185.585 1087.43 184.805 1088.3 183.785L1090.1 185.855C1089.05 187.115 1087.75 188.075 1086.19 188.735C1084.63 189.395 1082.9 189.725 1081.01 189.725C1078.58 189.725 1076.42 189.215 1074.53 188.195C1072.64 187.145 1071.17 185.705 1070.12 183.875C1069.07 182.045 1068.55 179.975 1068.55 177.665C1068.55 175.355 1069.04 173.285 1070.03 171.455C1071.05 169.625 1072.45 168.2 1074.22 167.18C1075.99 166.16 1078 165.65 1080.25 165.65C1082.35 165.65 1084.24 166.13 1085.92 167.09C1087.63 168.05 1088.98 169.385 1089.97 171.095C1090.99 172.805 1091.53 174.755 1091.59 176.945L1072.15 180.725C1072.75 182.645 1073.83 184.16 1075.39 185.27C1076.98 186.35 1078.87 186.89 1081.06 186.89ZM1080.25 168.395C1078.6 168.395 1077.11 168.785 1075.79 169.565C1074.5 170.315 1073.48 171.38 1072.73 172.76C1072.01 174.11 1071.65 175.67 1071.65 177.44C1071.65 177.89 1071.67 178.22 1071.7 178.43L1088.39 175.19C1088.03 173.21 1087.12 171.59 1085.65 170.33C1084.18 169.04 1082.38 168.395 1080.25 168.395ZM1119.42 165.83V186.62C1119.42 190.64 1118.5 193.61 1116.67 195.53C1114.84 197.48 1112.08 198.455 1108.39 198.455C1106.32 198.455 1104.36 198.125 1102.5 197.465C1100.67 196.835 1099.18 195.95 1098.04 194.81L1099.66 192.38C1100.68 193.4 1101.94 194.195 1103.44 194.765C1104.94 195.335 1106.55 195.62 1108.26 195.62C1110.99 195.62 1113 194.915 1114.29 193.505C1115.58 192.125 1116.22 189.965 1116.22 187.025V184.28C1115.38 185.66 1114.23 186.725 1112.76 187.475C1111.32 188.225 1109.68 188.6 1107.85 188.6C1104.76 188.6 1102.32 187.745 1100.52 186.035C1098.75 184.295 1097.86 181.76 1097.86 178.43V165.83H1101.06V178.115C1101.06 180.605 1101.67 182.495 1102.9 183.785C1104.13 185.075 1105.89 185.72 1108.17 185.72C1110.66 185.72 1112.62 184.97 1114.06 183.47C1115.5 181.94 1116.22 179.825 1116.22 177.125V165.83H1119.42ZM1134.71 189.725C1132.79 189.725 1130.95 189.455 1129.18 188.915C1127.44 188.345 1126.07 187.64 1125.08 186.8L1126.52 184.28C1127.51 185.06 1128.76 185.705 1130.26 186.215C1131.76 186.695 1133.32 186.935 1134.94 186.935C1137.1 186.935 1138.69 186.605 1139.71 185.945C1140.76 185.255 1141.28 184.295 1141.28 183.065C1141.28 182.195 1141 181.52 1140.43 181.04C1139.86 180.53 1139.14 180.155 1138.27 179.915C1137.4 179.645 1136.24 179.39 1134.8 179.15C1132.88 178.79 1131.34 178.43 1130.17 178.07C1129 177.68 1127.99 177.035 1127.15 176.135C1126.34 175.235 1125.94 173.99 1125.94 172.4C1125.94 170.42 1126.76 168.8 1128.41 167.54C1130.06 166.28 1132.36 165.65 1135.3 165.65C1136.83 165.65 1138.36 165.86 1139.89 166.28C1141.42 166.67 1142.68 167.195 1143.67 167.855L1142.27 170.42C1140.32 169.07 1138 168.395 1135.3 168.395C1133.26 168.395 1131.71 168.755 1130.66 169.475C1129.64 170.195 1129.13 171.14 1129.13 172.31C1129.13 173.21 1129.42 173.93 1129.99 174.47C1130.59 175.01 1131.32 175.415 1132.19 175.685C1133.06 175.925 1134.26 176.18 1135.79 176.45C1137.68 176.81 1139.2 177.17 1140.34 177.53C1141.48 177.89 1142.45 178.505 1143.26 179.375C1144.07 180.245 1144.48 181.445 1144.48 182.975C1144.48 185.045 1143.61 186.695 1141.87 187.925C1140.16 189.125 1137.77 189.725 1134.71 189.725Z" fill="black"/>
<circle cx="1055.99" cy="323.75" r="45" fill="#7D00FB" stroke="white" stroke-width="22.5"/>
<path d="M1310.65 149.77C1307.53 149.77 1304.71 149.08 1302.19 147.7C1299.7 146.32 1297.74 144.415 1296.3 141.985C1294.89 139.525 1294.18 136.78 1294.18 133.75C1294.18 130.72 1294.89 127.99 1296.3 125.56C1297.74 123.1 1299.72 121.18 1302.24 119.8C1304.76 118.42 1307.58 117.73 1310.7 117.73C1313.04 117.73 1315.2 118.12 1317.18 118.9C1319.16 119.68 1320.84 120.82 1322.22 122.32L1320.1 124.435C1317.64 121.945 1314.54 120.7 1310.79 120.7C1308.3 120.7 1306.03 121.27 1303.99 122.41C1301.95 123.55 1300.35 125.11 1299.18 127.09C1298.04 129.07 1297.47 131.29 1297.47 133.75C1297.47 136.21 1298.04 138.43 1299.18 140.41C1300.35 142.39 1301.95 143.95 1303.99 145.09C1306.03 146.23 1308.3 146.8 1310.79 146.8C1314.57 146.8 1317.67 145.54 1320.1 143.02L1322.22 145.135C1320.84 146.635 1319.14 147.79 1317.13 148.6C1315.15 149.38 1312.99 149.77 1310.65 149.77ZM1337.26 149.725C1334.98 149.725 1332.93 149.215 1331.1 148.195C1329.27 147.145 1327.83 145.705 1326.78 143.875C1325.73 142.045 1325.2 139.975 1325.2 137.665C1325.2 135.355 1325.73 133.285 1326.78 131.455C1327.83 129.625 1329.27 128.2 1331.1 127.18C1332.93 126.16 1334.98 125.65 1337.26 125.65C1339.54 125.65 1341.6 126.16 1343.43 127.18C1345.26 128.2 1346.68 129.625 1347.7 131.455C1348.75 133.285 1349.28 135.355 1349.28 137.665C1349.28 139.975 1348.75 142.045 1347.7 143.875C1346.68 145.705 1345.26 147.145 1343.43 148.195C1341.6 149.215 1339.54 149.725 1337.26 149.725ZM1337.26 146.89C1338.94 146.89 1340.44 146.515 1341.76 145.765C1343.11 144.985 1344.16 143.89 1344.91 142.48C1345.66 141.07 1346.04 139.465 1346.04 137.665C1346.04 135.865 1345.66 134.26 1344.91 132.85C1344.16 131.44 1343.11 130.36 1341.76 129.61C1340.44 128.83 1338.94 128.44 1337.26 128.44C1335.58 128.44 1334.07 128.83 1332.72 129.61C1331.4 130.36 1330.35 131.44 1329.57 132.85C1328.82 134.26 1328.44 135.865 1328.44 137.665C1328.44 139.465 1328.82 141.07 1329.57 142.48C1330.35 143.89 1331.4 144.985 1332.72 145.765C1334.07 146.515 1335.58 146.89 1337.26 146.89ZM1385.32 125.65C1388.29 125.65 1390.62 126.505 1392.3 128.215C1394.01 129.925 1394.86 132.445 1394.86 135.775V149.5H1391.67V136.09C1391.67 133.63 1391.07 131.755 1389.87 130.465C1388.7 129.175 1387.03 128.53 1384.87 128.53C1382.41 128.53 1380.48 129.295 1379.07 130.825C1377.66 132.325 1376.95 134.41 1376.95 137.08V149.5H1373.76V136.09C1373.76 133.63 1373.16 131.755 1371.96 130.465C1370.79 129.175 1369.11 128.53 1366.92 128.53C1364.49 128.53 1362.55 129.295 1361.11 130.825C1359.7 132.325 1359 134.41 1359 137.08V149.5H1355.8V125.83H1358.86V130.15C1359.7 128.71 1360.87 127.6 1362.37 126.82C1363.87 126.04 1365.6 125.65 1367.55 125.65C1369.53 125.65 1371.24 126.07 1372.68 126.91C1374.15 127.75 1375.24 128.995 1375.96 130.645C1376.83 129.085 1378.08 127.87 1379.7 127C1381.35 126.1 1383.22 125.65 1385.32 125.65ZM1415.72 125.65C1417.94 125.65 1419.95 126.16 1421.75 127.18C1423.55 128.17 1424.96 129.58 1425.98 131.41C1427 133.24 1427.51 135.325 1427.51 137.665C1427.51 140.035 1427 142.135 1425.98 143.965C1424.96 145.795 1423.55 147.22 1421.75 148.24C1419.98 149.23 1417.97 149.725 1415.72 149.725C1413.8 149.725 1412.06 149.335 1410.5 148.555C1408.97 147.745 1407.71 146.575 1406.72 145.045V158.23H1403.53V125.83H1406.59V130.51C1407.55 128.95 1408.81 127.75 1410.37 126.91C1411.96 126.07 1413.74 125.65 1415.72 125.65ZM1415.5 146.89C1417.15 146.89 1418.65 146.515 1420 145.765C1421.35 144.985 1422.4 143.89 1423.15 142.48C1423.93 141.07 1424.32 139.465 1424.32 137.665C1424.32 135.865 1423.93 134.275 1423.15 132.895C1422.4 131.485 1421.35 130.39 1420 129.61C1418.65 128.83 1417.15 128.44 1415.5 128.44C1413.82 128.44 1412.3 128.83 1410.95 129.61C1409.63 130.39 1408.58 131.485 1407.8 132.895C1407.05 134.275 1406.68 135.865 1406.68 137.665C1406.68 139.465 1407.05 141.07 1407.8 142.48C1408.58 143.89 1409.63 144.985 1410.95 145.765C1412.3 146.515 1413.82 146.89 1415.5 146.89ZM1444.15 146.89C1445.62 146.89 1446.97 146.635 1448.2 146.125C1449.46 145.585 1450.52 144.805 1451.39 143.785L1453.19 145.855C1452.14 147.115 1450.84 148.075 1449.28 148.735C1447.72 149.395 1445.99 149.725 1444.1 149.725C1441.67 149.725 1439.51 149.215 1437.62 148.195C1435.73 147.145 1434.26 145.705 1433.21 143.875C1432.16 142.045 1431.64 139.975 1431.64 137.665C1431.64 135.355 1432.13 133.285 1433.12 131.455C1434.14 129.625 1435.54 128.2 1437.31 127.18C1439.08 126.16 1441.09 125.65 1443.34 125.65C1445.44 125.65 1447.33 126.13 1449.01 127.09C1450.72 128.05 1452.07 129.385 1453.06 131.095C1454.08 132.805 1454.62 134.755 1454.68 136.945L1435.24 140.725C1435.84 142.645 1436.92 144.16 1438.48 145.27C1440.07 146.35 1441.96 146.89 1444.15 146.89ZM1443.34 128.395C1441.69 128.395 1440.2 128.785 1438.88 129.565C1437.59 130.315 1436.57 131.38 1435.82 132.76C1435.1 134.11 1434.74 135.67 1434.74 137.44C1434.74 137.89 1434.76 138.22 1434.79 138.43L1451.48 135.19C1451.12 133.21 1450.21 131.59 1448.74 130.33C1447.27 129.04 1445.47 128.395 1443.34 128.395ZM1472.84 148.06C1472.24 148.6 1471.5 149.02 1470.63 149.32C1469.76 149.59 1468.85 149.725 1467.89 149.725C1465.67 149.725 1463.96 149.125 1462.76 147.925C1461.56 146.725 1460.96 145.03 1460.96 142.84V120.655H1464.15V125.83H1471.31V128.53H1464.15V142.66C1464.15 144.07 1464.5 145.15 1465.19 145.9C1465.88 146.62 1466.88 146.98 1468.2 146.98C1469.64 146.98 1470.81 146.575 1471.71 145.765L1472.84 148.06ZM1478.63 125.83H1481.82V149.5H1478.63V125.83ZM1480.25 120.655C1479.59 120.655 1479.03 120.43 1478.58 119.98C1478.13 119.53 1477.91 118.99 1477.91 118.36C1477.91 117.76 1478.13 117.235 1478.58 116.785C1479.03 116.335 1479.59 116.11 1480.25 116.11C1480.91 116.11 1481.46 116.335 1481.91 116.785C1482.36 117.205 1482.59 117.715 1482.59 118.315C1482.59 118.975 1482.36 119.53 1481.91 119.98C1481.46 120.43 1480.91 120.655 1480.25 120.655ZM1502.37 148.06C1501.77 148.6 1501.03 149.02 1500.16 149.32C1499.29 149.59 1498.38 149.725 1497.42 149.725C1495.2 149.725 1493.49 149.125 1492.29 147.925C1491.09 146.725 1490.49 145.03 1490.49 142.84V120.655H1493.68V125.83H1500.84V128.53H1493.68V142.66C1493.68 144.07 1494.03 145.15 1494.72 145.9C1495.41 146.62 1496.41 146.98 1497.73 146.98C1499.17 146.98 1500.34 146.575 1501.24 145.765L1502.37 148.06ZM1517 149.725C1514.72 149.725 1512.66 149.215 1510.83 148.195C1509 147.145 1507.56 145.705 1506.51 143.875C1505.46 142.045 1504.94 139.975 1504.94 137.665C1504.94 135.355 1505.46 133.285 1506.51 131.455C1507.56 129.625 1509 128.2 1510.83 127.18C1512.66 126.16 1514.72 125.65 1517 125.65C1519.28 125.65 1521.33 126.16 1523.16 127.18C1524.99 128.2 1526.42 129.625 1527.44 131.455C1528.49 133.285 1529.01 135.355 1529.01 137.665C1529.01 139.975 1528.49 142.045 1527.44 143.875C1526.42 145.705 1524.99 147.145 1523.16 148.195C1521.33 149.215 1519.28 149.725 1517 149.725ZM1517 146.89C1518.68 146.89 1520.18 146.515 1521.5 145.765C1522.85 144.985 1523.9 143.89 1524.65 142.48C1525.4 141.07 1525.77 139.465 1525.77 137.665C1525.77 135.865 1525.4 134.26 1524.65 132.85C1523.9 131.44 1522.85 130.36 1521.5 129.61C1520.18 128.83 1518.68 128.44 1517 128.44C1515.32 128.44 1513.8 128.83 1512.45 129.61C1511.13 130.36 1510.08 131.44 1509.3 132.85C1508.55 134.26 1508.18 135.865 1508.18 137.665C1508.18 139.465 1508.55 141.07 1509.3 142.48C1510.08 143.89 1511.13 144.985 1512.45 145.765C1513.8 146.515 1515.32 146.89 1517 146.89ZM1538.6 130.465C1539.35 128.875 1540.46 127.675 1541.93 126.865C1543.43 126.055 1545.27 125.65 1547.46 125.65V128.755L1546.7 128.71C1544.21 128.71 1542.26 129.475 1540.85 131.005C1539.44 132.535 1538.73 134.68 1538.73 137.44V149.5H1535.54V125.83H1538.6V130.465ZM1339.82 172.73C1343.9 172.73 1347.11 173.93 1349.45 176.33C1351.82 178.7 1353 182.135 1353 186.635V204.5H1349.72V195.23H1329.92V204.5H1326.68V186.635C1326.68 182.135 1327.85 178.7 1330.19 176.33C1332.56 173.93 1335.77 172.73 1339.82 172.73ZM1349.72 192.35V186.32C1349.72 182.81 1348.85 180.17 1347.11 178.4C1345.37 176.6 1342.94 175.7 1339.82 175.7C1336.7 175.7 1334.27 176.6 1332.53 178.4C1330.79 180.17 1329.92 182.81 1329.92 186.32V192.35H1349.72ZM1374.37 180.65C1377.34 180.65 1379.69 181.52 1381.43 183.26C1383.2 184.97 1384.09 187.475 1384.09 190.775V204.5H1380.89V191.09C1380.89 188.63 1380.28 186.755 1379.05 185.465C1377.82 184.175 1376.06 183.53 1373.78 183.53C1371.23 183.53 1369.21 184.295 1367.71 185.825C1366.24 187.325 1365.5 189.41 1365.5 192.08V204.5H1362.31V180.83H1365.37V185.195C1366.24 183.755 1367.44 182.645 1368.97 181.865C1370.53 181.055 1372.33 180.65 1374.37 180.65ZM1414.45 180.83V204.5H1411.39V199.82C1410.43 201.41 1409.15 202.625 1407.56 203.465C1406 204.305 1404.23 204.725 1402.25 204.725C1400.03 204.725 1398.02 204.215 1396.22 203.195C1394.42 202.175 1393.01 200.75 1391.99 198.92C1390.97 197.09 1390.46 195.005 1390.46 192.665C1390.46 190.325 1390.97 188.24 1391.99 186.41C1393.01 184.58 1394.42 183.17 1396.22 182.18C1398.02 181.16 1400.03 180.65 1402.25 180.65C1404.17 180.65 1405.9 181.055 1407.43 181.865C1408.99 182.645 1410.26 183.8 1411.25 185.33V180.83H1414.45ZM1402.52 201.89C1404.17 201.89 1405.66 201.515 1406.98 200.765C1408.33 199.985 1409.38 198.89 1410.13 197.48C1410.91 196.07 1411.3 194.465 1411.3 192.665C1411.3 190.865 1410.91 189.26 1410.13 187.85C1409.38 186.44 1408.33 185.36 1406.98 184.61C1405.66 183.83 1404.17 183.44 1402.52 183.44C1400.84 183.44 1399.33 183.83 1397.98 184.61C1396.66 185.36 1395.61 186.44 1394.83 187.85C1394.08 189.26 1393.7 190.865 1393.7 192.665C1393.7 194.465 1394.08 196.07 1394.83 197.48C1395.61 198.89 1396.66 199.985 1397.98 200.765C1399.33 201.515 1400.84 201.89 1402.52 201.89ZM1430.01 204.725C1427.88 204.725 1426.23 204.125 1425.06 202.925C1423.92 201.725 1423.35 200.06 1423.35 197.93V171.11H1426.54V197.66C1426.54 199.07 1426.87 200.15 1427.53 200.9C1428.19 201.62 1429.18 201.98 1430.5 201.98C1431.34 201.98 1432.06 201.845 1432.66 201.575L1432.89 204.23C1431.96 204.56 1431 204.725 1430.01 204.725ZM1458.56 180.83V201.62C1458.56 205.64 1457.65 208.61 1455.82 210.53C1453.99 212.48 1451.23 213.455 1447.54 213.455C1445.47 213.455 1443.5 213.125 1441.64 212.465C1439.81 211.835 1438.33 210.95 1437.19 209.81L1438.81 207.38C1439.83 208.4 1441.09 209.195 1442.59 209.765C1444.09 210.335 1445.69 210.62 1447.4 210.62C1450.13 210.62 1452.14 209.915 1453.43 208.505C1454.72 207.125 1455.37 204.965 1455.37 202.025V199.28C1454.53 200.66 1453.37 201.725 1451.9 202.475C1450.46 203.225 1448.83 203.6 1447 203.6C1443.91 203.6 1441.46 202.745 1439.66 201.035C1437.89 199.295 1437.01 196.76 1437.01 193.43V180.83H1440.2V193.115C1440.2 195.605 1440.82 197.495 1442.05 198.785C1443.28 200.075 1445.03 200.72 1447.31 200.72C1449.8 200.72 1451.77 199.97 1453.21 198.47C1454.65 196.94 1455.37 194.825 1455.37 192.125V180.83H1458.56ZM1473.86 204.725C1471.94 204.725 1470.09 204.455 1468.32 203.915C1466.58 203.345 1465.22 202.64 1464.23 201.8L1465.67 199.28C1466.66 200.06 1467.9 200.705 1469.4 201.215C1470.9 201.695 1472.46 201.935 1474.08 201.935C1476.24 201.935 1477.83 201.605 1478.85 200.945C1479.9 200.255 1480.43 199.295 1480.43 198.065C1480.43 197.195 1480.14 196.52 1479.57 196.04C1479 195.53 1478.28 195.155 1477.41 194.915C1476.54 194.645 1475.39 194.39 1473.95 194.15C1472.03 193.79 1470.48 193.43 1469.31 193.07C1468.14 192.68 1467.14 192.035 1466.3 191.135C1465.49 190.235 1465.08 188.99 1465.08 187.4C1465.08 185.42 1465.91 183.8 1467.56 182.54C1469.21 181.28 1471.5 180.65 1474.44 180.65C1475.97 180.65 1477.5 180.86 1479.03 181.28C1480.56 181.67 1481.82 182.195 1482.81 182.855L1481.42 185.42C1479.47 184.07 1477.14 183.395 1474.44 183.395C1472.4 183.395 1470.86 183.755 1469.81 184.475C1468.79 185.195 1468.28 186.14 1468.28 187.31C1468.28 188.21 1468.56 188.93 1469.13 189.47C1469.73 190.01 1470.47 190.415 1471.34 190.685C1472.21 190.925 1473.41 191.18 1474.94 191.45C1476.83 191.81 1478.34 192.17 1479.48 192.53C1480.62 192.89 1481.6 193.505 1482.41 194.375C1483.22 195.245 1483.62 196.445 1483.62 197.975C1483.62 200.045 1482.75 201.695 1481.01 202.925C1479.3 204.125 1476.92 204.725 1473.86 204.725ZM1489.53 180.83H1492.72V204.5H1489.53V180.83ZM1491.15 175.655C1490.49 175.655 1489.93 175.43 1489.48 174.98C1489.03 174.53 1488.81 173.99 1488.81 173.36C1488.81 172.76 1489.03 172.235 1489.48 171.785C1489.93 171.335 1490.49 171.11 1491.15 171.11C1491.81 171.11 1492.36 171.335 1492.81 171.785C1493.26 172.205 1493.49 172.715 1493.49 173.315C1493.49 173.975 1493.26 174.53 1492.81 174.98C1492.36 175.43 1491.81 175.655 1491.15 175.655ZM1507.96 204.725C1506.04 204.725 1504.19 204.455 1502.42 203.915C1500.68 203.345 1499.32 202.64 1498.33 201.8L1499.77 199.28C1500.76 200.06 1502 200.705 1503.5 201.215C1505 201.695 1506.56 201.935 1508.18 201.935C1510.34 201.935 1511.93 201.605 1512.95 200.945C1514 200.255 1514.53 199.295 1514.53 198.065C1514.53 197.195 1514.24 196.52 1513.67 196.04C1513.1 195.53 1512.38 195.155 1511.51 194.915C1510.64 194.645 1509.49 194.39 1508.05 194.15C1506.13 193.79 1504.58 193.43 1503.41 193.07C1502.24 192.68 1501.24 192.035 1500.4 191.135C1499.59 190.235 1499.18 188.99 1499.18 187.4C1499.18 185.42 1500.01 183.8 1501.66 182.54C1503.31 181.28 1505.6 180.65 1508.54 180.65C1510.07 180.65 1511.6 180.86 1513.13 181.28C1514.66 181.67 1515.92 182.195 1516.91 182.855L1515.52 185.42C1513.57 184.07 1511.24 183.395 1508.54 183.395C1506.5 183.395 1504.96 183.755 1503.91 184.475C1502.89 185.195 1502.38 186.14 1502.38 187.31C1502.38 188.21 1502.66 188.93 1503.23 189.47C1503.83 190.01 1504.57 190.415 1505.44 190.685C1506.31 190.925 1507.51 191.18 1509.04 191.45C1510.93 191.81 1512.44 192.17 1513.58 192.53C1514.72 192.89 1515.7 193.505 1516.51 194.375C1517.32 195.245 1517.72 196.445 1517.72 197.975C1517.72 200.045 1516.85 201.695 1515.11 202.925C1513.4 204.125 1511.02 204.725 1507.96 204.725Z" fill="black"/>
<circle cx="1420.49" cy="323.75" r="45" fill="#7D00FB" stroke="white" stroke-width="22.5"/>
<path d="M1745.33 118V149.5H1742.04V134.965H1722.33V149.5H1719V118H1722.33V132.04H1742.04V118H1745.33ZM1765.06 146.89C1766.53 146.89 1767.88 146.635 1769.11 146.125C1770.37 145.585 1771.43 144.805 1772.3 143.785L1774.1 145.855C1773.05 147.115 1771.75 148.075 1770.19 148.735C1768.63 149.395 1766.9 149.725 1765.01 149.725C1762.58 149.725 1760.42 149.215 1758.53 148.195C1756.64 147.145 1755.17 145.705 1754.12 143.875C1753.07 142.045 1752.55 139.975 1752.55 137.665C1752.55 135.355 1753.04 133.285 1754.03 131.455C1755.05 129.625 1756.45 128.2 1758.22 127.18C1759.99 126.16 1762 125.65 1764.25 125.65C1766.35 125.65 1768.24 126.13 1769.92 127.09C1771.63 128.05 1772.98 129.385 1773.97 131.095C1774.99 132.805 1775.53 134.755 1775.59 136.945L1756.15 140.725C1756.75 142.645 1757.83 144.16 1759.39 145.27C1760.98 146.35 1762.87 146.89 1765.06 146.89ZM1764.25 128.395C1762.6 128.395 1761.11 128.785 1759.79 129.565C1758.5 130.315 1757.48 131.38 1756.73 132.76C1756.01 134.11 1755.65 135.67 1755.65 137.44C1755.65 137.89 1755.67 138.22 1755.7 138.43L1772.39 135.19C1772.03 133.21 1771.12 131.59 1769.65 130.33C1768.18 129.04 1766.38 128.395 1764.25 128.395ZM1803.42 125.83V149.5H1800.36V145.18C1799.52 146.62 1798.37 147.745 1796.9 148.555C1795.43 149.335 1793.75 149.725 1791.86 149.725C1788.77 149.725 1786.32 148.87 1784.52 147.16C1782.75 145.42 1781.87 142.885 1781.87 139.555V125.83H1785.06V139.24C1785.06 141.73 1785.68 143.62 1786.91 144.91C1788.14 146.2 1789.89 146.845 1792.17 146.845C1794.66 146.845 1796.63 146.095 1798.07 144.595C1799.51 143.065 1800.23 140.95 1800.23 138.25V125.83H1803.42ZM1815.43 130.465C1816.18 128.875 1817.29 127.675 1818.76 126.865C1820.26 126.055 1822.11 125.65 1824.3 125.65V128.755L1823.53 128.71C1821.04 128.71 1819.09 129.475 1817.68 131.005C1816.27 132.535 1815.57 134.68 1815.57 137.44V149.5H1812.37V125.83H1815.43V130.465ZM1830.08 125.83H1833.28V149.5H1830.08V125.83ZM1831.7 120.655C1831.04 120.655 1830.49 120.43 1830.04 119.98C1829.59 119.53 1829.36 118.99 1829.36 118.36C1829.36 117.76 1829.59 117.235 1830.04 116.785C1830.49 116.335 1831.04 116.11 1831.7 116.11C1832.36 116.11 1832.92 116.335 1833.37 116.785C1833.82 117.205 1834.04 117.715 1834.04 118.315C1834.04 118.975 1833.82 119.53 1833.37 119.98C1832.92 120.43 1832.36 120.655 1831.7 120.655ZM1848.51 149.725C1846.59 149.725 1844.75 149.455 1842.98 148.915C1841.24 148.345 1839.87 147.64 1838.88 146.8L1840.32 144.28C1841.31 145.06 1842.56 145.705 1844.06 146.215C1845.56 146.695 1847.12 146.935 1848.74 146.935C1850.9 146.935 1852.49 146.605 1853.51 145.945C1854.56 145.255 1855.08 144.295 1855.08 143.065C1855.08 142.195 1854.8 141.52 1854.23 141.04C1853.66 140.53 1852.94 140.155 1852.07 139.915C1851.2 139.645 1850.04 139.39 1848.6 139.15C1846.68 138.79 1845.14 138.43 1843.97 138.07C1842.8 137.68 1841.79 137.035 1840.95 136.135C1840.14 135.235 1839.74 133.99 1839.74 132.4C1839.74 130.42 1840.56 128.8 1842.21 127.54C1843.86 126.28 1846.16 125.65 1849.1 125.65C1850.63 125.65 1852.16 125.86 1853.69 126.28C1855.22 126.67 1856.48 127.195 1857.47 127.855L1856.07 130.42C1854.12 129.07 1851.8 128.395 1849.1 128.395C1847.06 128.395 1845.51 128.755 1844.46 129.475C1843.44 130.195 1842.93 131.14 1842.93 132.31C1842.93 133.21 1843.22 133.93 1843.79 134.47C1844.39 135.01 1845.12 135.415 1845.99 135.685C1846.86 135.925 1848.06 136.18 1849.59 136.45C1851.48 136.81 1853 137.17 1854.14 137.53C1855.28 137.89 1856.25 138.505 1857.06 139.375C1857.87 140.245 1858.28 141.445 1858.28 142.975C1858.28 145.045 1857.41 146.695 1855.67 147.925C1853.96 149.125 1851.57 149.725 1848.51 149.725ZM1875.84 148.06C1875.24 148.6 1874.5 149.02 1873.63 149.32C1872.76 149.59 1871.85 149.725 1870.89 149.725C1868.67 149.725 1866.96 149.125 1865.76 147.925C1864.56 146.725 1863.96 145.03 1863.96 142.84V120.655H1867.15V125.83H1874.31V128.53H1867.15V142.66C1867.15 144.07 1867.5 145.15 1868.19 145.9C1868.88 146.62 1869.88 146.98 1871.2 146.98C1872.64 146.98 1873.81 146.575 1874.71 145.765L1875.84 148.06ZM1881.63 125.83H1884.82V149.5H1881.63V125.83ZM1883.25 120.655C1882.59 120.655 1882.03 120.43 1881.58 119.98C1881.13 119.53 1880.91 118.99 1880.91 118.36C1880.91 117.76 1881.13 117.235 1881.58 116.785C1882.03 116.335 1882.59 116.11 1883.25 116.11C1883.91 116.11 1884.46 116.335 1884.91 116.785C1885.36 117.205 1885.59 117.715 1885.59 118.315C1885.59 118.975 1885.36 119.53 1884.91 119.98C1884.46 120.43 1883.91 120.655 1883.25 120.655ZM1903.52 149.725C1901.18 149.725 1899.08 149.215 1897.22 148.195C1895.39 147.175 1893.95 145.75 1892.9 143.92C1891.85 142.06 1891.33 139.975 1891.33 137.665C1891.33 135.355 1891.85 133.285 1892.9 131.455C1893.95 129.625 1895.39 128.2 1897.22 127.18C1899.08 126.16 1901.18 125.65 1903.52 125.65C1905.56 125.65 1907.38 126.055 1908.97 126.865C1910.59 127.645 1911.86 128.8 1912.79 130.33L1910.41 131.95C1909.63 130.78 1908.64 129.91 1907.44 129.34C1906.24 128.74 1904.93 128.44 1903.52 128.44C1901.81 128.44 1900.27 128.83 1898.89 129.61C1897.54 130.36 1896.47 131.44 1895.69 132.85C1894.94 134.26 1894.57 135.865 1894.57 137.665C1894.57 139.495 1894.94 141.115 1895.69 142.525C1896.47 143.905 1897.54 144.985 1898.89 145.765C1900.27 146.515 1901.81 146.89 1903.52 146.89C1904.93 146.89 1906.24 146.605 1907.44 146.035C1908.64 145.465 1909.63 144.595 1910.41 143.425L1912.79 145.045C1911.86 146.575 1910.59 147.745 1908.97 148.555C1907.35 149.335 1905.53 149.725 1903.52 149.725ZM1733.57 172.73C1737.65 172.73 1740.86 173.93 1743.2 176.33C1745.57 178.7 1746.75 182.135 1746.75 186.635V204.5H1743.47V195.23H1723.67V204.5H1720.43V186.635C1720.43 182.135 1721.6 178.7 1723.94 176.33C1726.31 173.93 1729.52 172.73 1733.57 172.73ZM1743.47 192.35V186.32C1743.47 182.81 1742.6 180.17 1740.86 178.4C1739.12 176.6 1736.69 175.7 1733.57 175.7C1730.45 175.7 1728.02 176.6 1726.28 178.4C1724.54 180.17 1723.67 182.81 1723.67 186.32V192.35H1743.47ZM1768.12 180.65C1771.09 180.65 1773.44 181.52 1775.18 183.26C1776.95 184.97 1777.84 187.475 1777.84 190.775V204.5H1774.64V191.09C1774.64 188.63 1774.03 186.755 1772.8 185.465C1771.57 184.175 1769.81 183.53 1767.53 183.53C1764.98 183.53 1762.96 184.295 1761.46 185.825C1759.99 187.325 1759.25 189.41 1759.25 192.08V204.5H1756.06V180.83H1759.12V185.195C1759.99 183.755 1761.19 182.645 1762.72 181.865C1764.28 181.055 1766.08 180.65 1768.12 180.65ZM1808.2 180.83V204.5H1805.14V199.82C1804.18 201.41 1802.9 202.625 1801.31 203.465C1799.75 204.305 1797.98 204.725 1796 204.725C1793.78 204.725 1791.77 204.215 1789.97 203.195C1788.17 202.175 1786.76 200.75 1785.74 198.92C1784.72 197.09 1784.21 195.005 1784.21 192.665C1784.21 190.325 1784.72 188.24 1785.74 186.41C1786.76 184.58 1788.17 183.17 1789.97 182.18C1791.77 181.16 1793.78 180.65 1796 180.65C1797.92 180.65 1799.65 181.055 1801.18 181.865C1802.74 182.645 1804.01 183.8 1805 185.33V180.83H1808.2ZM1796.27 201.89C1797.92 201.89 1799.41 201.515 1800.73 200.765C1802.08 199.985 1803.13 198.89 1803.88 197.48C1804.66 196.07 1805.05 194.465 1805.05 192.665C1805.05 190.865 1804.66 189.26 1803.88 187.85C1803.13 186.44 1802.08 185.36 1800.73 184.61C1799.41 183.83 1797.92 183.44 1796.27 183.44C1794.59 183.44 1793.08 183.83 1791.73 184.61C1790.41 185.36 1789.36 186.44 1788.58 187.85C1787.83 189.26 1787.45 190.865 1787.45 192.665C1787.45 194.465 1787.83 196.07 1788.58 197.48C1789.36 198.89 1790.41 199.985 1791.73 200.765C1793.08 201.515 1794.59 201.89 1796.27 201.89ZM1823.76 204.725C1821.63 204.725 1819.98 204.125 1818.81 202.925C1817.67 201.725 1817.1 200.06 1817.1 197.93V171.11H1820.29V197.66C1820.29 199.07 1820.62 200.15 1821.28 200.9C1821.94 201.62 1822.93 201.98 1824.25 201.98C1825.09 201.98 1825.81 201.845 1826.41 201.575L1826.64 204.23C1825.71 204.56 1824.75 204.725 1823.76 204.725ZM1852.31 180.83V201.62C1852.31 205.64 1851.4 208.61 1849.57 210.53C1847.74 212.48 1844.98 213.455 1841.29 213.455C1839.22 213.455 1837.25 213.125 1835.39 212.465C1833.56 211.835 1832.08 210.95 1830.94 209.81L1832.56 207.38C1833.58 208.4 1834.84 209.195 1836.34 209.765C1837.84 210.335 1839.44 210.62 1841.15 210.62C1843.88 210.62 1845.89 209.915 1847.18 208.505C1848.47 207.125 1849.12 204.965 1849.12 202.025V199.28C1848.28 200.66 1847.12 201.725 1845.65 202.475C1844.21 203.225 1842.58 203.6 1840.75 203.6C1837.66 203.6 1835.21 202.745 1833.41 201.035C1831.64 199.295 1830.76 196.76 1830.76 193.43V180.83H1833.95V193.115C1833.95 195.605 1834.57 197.495 1835.8 198.785C1837.03 200.075 1838.78 200.72 1841.06 200.72C1843.55 200.72 1845.52 199.97 1846.96 198.47C1848.4 196.94 1849.12 194.825 1849.12 192.125V180.83H1852.31ZM1867.61 204.725C1865.69 204.725 1863.84 204.455 1862.07 203.915C1860.33 203.345 1858.97 202.64 1857.98 201.8L1859.42 199.28C1860.41 200.06 1861.65 200.705 1863.15 201.215C1864.65 201.695 1866.21 201.935 1867.83 201.935C1869.99 201.935 1871.58 201.605 1872.6 200.945C1873.65 200.255 1874.18 199.295 1874.18 198.065C1874.18 197.195 1873.89 196.52 1873.32 196.04C1872.75 195.53 1872.03 195.155 1871.16 194.915C1870.29 194.645 1869.14 194.39 1867.7 194.15C1865.78 193.79 1864.23 193.43 1863.06 193.07C1861.89 192.68 1860.89 192.035 1860.05 191.135C1859.24 190.235 1858.83 188.99 1858.83 187.4C1858.83 185.42 1859.66 183.8 1861.31 182.54C1862.96 181.28 1865.25 180.65 1868.19 180.65C1869.72 180.65 1871.25 180.86 1872.78 181.28C1874.31 181.67 1875.57 182.195 1876.56 182.855L1875.17 185.42C1873.22 184.07 1870.89 183.395 1868.19 183.395C1866.15 183.395 1864.61 183.755 1863.56 184.475C1862.54 185.195 1862.03 186.14 1862.03 187.31C1862.03 188.21 1862.31 188.93 1862.88 189.47C1863.48 190.01 1864.22 190.415 1865.09 190.685C1865.96 190.925 1867.16 191.18 1868.69 191.45C1870.58 191.81 1872.09 192.17 1873.23 192.53C1874.37 192.89 1875.35 193.505 1876.16 194.375C1876.97 195.245 1877.37 196.445 1877.37 197.975C1877.37 200.045 1876.5 201.695 1874.76 202.925C1873.05 204.125 1870.67 204.725 1867.61 204.725ZM1883.28 180.83H1886.47V204.5H1883.28V180.83ZM1884.9 175.655C1884.24 175.655 1883.68 175.43 1883.23 174.98C1882.78 174.53 1882.56 173.99 1882.56 173.36C1882.56 172.76 1882.78 172.235 1883.23 171.785C1883.68 171.335 1884.24 171.11 1884.9 171.11C1885.56 171.11 1886.11 171.335 1886.56 171.785C1887.01 172.205 1887.24 172.715 1887.24 173.315C1887.24 173.975 1887.01 174.53 1886.56 174.98C1886.11 175.43 1885.56 175.655 1884.9 175.655ZM1901.71 204.725C1899.79 204.725 1897.94 204.455 1896.17 203.915C1894.43 203.345 1893.07 202.64 1892.08 201.8L1893.52 199.28C1894.51 200.06 1895.75 200.705 1897.25 201.215C1898.75 201.695 1900.31 201.935 1901.93 201.935C1904.09 201.935 1905.68 201.605 1906.7 200.945C1907.75 200.255 1908.28 199.295 1908.28 198.065C1908.28 197.195 1907.99 196.52 1907.42 196.04C1906.85 195.53 1906.13 195.155 1905.26 194.915C1904.39 194.645 1903.24 194.39 1901.8 194.15C1899.88 193.79 1898.33 193.43 1897.16 193.07C1895.99 192.68 1894.99 192.035 1894.15 191.135C1893.34 190.235 1892.93 188.99 1892.93 187.4C1892.93 185.42 1893.76 183.8 1895.41 182.54C1897.06 181.28 1899.35 180.65 1902.29 180.65C1903.82 180.65 1905.35 180.86 1906.88 181.28C1908.41 181.67 1909.67 182.195 1910.66 182.855L1909.27 185.42C1907.32 184.07 1904.99 183.395 1902.29 183.395C1900.25 183.395 1898.71 183.755 1897.66 184.475C1896.64 185.195 1896.13 186.14 1896.13 187.31C1896.13 188.21 1896.41 188.93 1896.98 189.47C1897.58 190.01 1898.32 190.415 1899.19 190.685C1900.06 190.925 1901.26 191.18 1902.79 191.45C1904.68 191.81 1906.19 192.17 1907.33 192.53C1908.47 192.89 1909.45 193.505 1910.26 194.375C1911.07 195.245 1911.47 196.445 1911.47 197.975C1911.47 200.045 1910.6 201.695 1908.86 202.925C1907.15 204.125 1904.77 204.725 1901.71 204.725Z" fill="black"/>
<circle cx="1814.24" cy="323.75" r="45" fill="#7D00FB" stroke="white" stroke-width="22.5"/>
<path d="M2110.22 118V149.5H2107.02V144.19C2104.95 147.91 2101.43 149.77 2096.45 149.77C2092.7 149.77 2089.76 148.645 2087.63 146.395C2085.5 144.145 2084.43 140.935 2084.43 136.765V118H2087.76V136.675C2087.76 140.005 2088.57 142.525 2090.19 144.235C2091.84 145.945 2094.14 146.8 2097.08 146.8C2100.17 146.8 2102.57 145.9 2104.28 144.1C2106.02 142.27 2106.89 139.54 2106.89 135.91V118H2110.22ZM2126.14 149.725C2124.22 149.725 2122.38 149.455 2120.61 148.915C2118.87 148.345 2117.5 147.64 2116.51 146.8L2117.95 144.28C2118.94 145.06 2120.19 145.705 2121.69 146.215C2123.19 146.695 2124.75 146.935 2126.37 146.935C2128.53 146.935 2130.12 146.605 2131.14 145.945C2132.19 145.255 2132.71 144.295 2132.71 143.065C2132.71 142.195 2132.43 141.52 2131.86 141.04C2131.29 140.53 2130.57 140.155 2129.7 139.915C2128.83 139.645 2127.67 139.39 2126.23 139.15C2124.31 138.79 2122.77 138.43 2121.6 138.07C2120.43 137.68 2119.42 137.035 2118.58 136.135C2117.77 135.235 2117.37 133.99 2117.37 132.4C2117.37 130.42 2118.19 128.8 2119.84 127.54C2121.49 126.28 2123.79 125.65 2126.73 125.65C2128.26 125.65 2129.79 125.86 2131.32 126.28C2132.85 126.67 2134.11 127.195 2135.1 127.855L2133.7 130.42C2131.75 129.07 2129.43 128.395 2126.73 128.395C2124.69 128.395 2123.14 128.755 2122.09 129.475C2121.07 130.195 2120.56 131.14 2120.56 132.31C2120.56 133.21 2120.85 133.93 2121.42 134.47C2122.02 135.01 2122.75 135.415 2123.62 135.685C2124.49 135.925 2125.69 136.18 2127.22 136.45C2129.11 136.81 2130.63 137.17 2131.77 137.53C2132.91 137.89 2133.88 138.505 2134.69 139.375C2135.5 140.245 2135.91 141.445 2135.91 142.975C2135.91 145.045 2135.04 146.695 2133.3 147.925C2131.59 149.125 2129.2 149.725 2126.14 149.725ZM2163.42 125.83V149.5H2160.36V144.82C2159.4 146.41 2158.12 147.625 2156.53 148.465C2154.97 149.305 2153.2 149.725 2151.22 149.725C2149 149.725 2146.99 149.215 2145.19 148.195C2143.39 147.175 2141.98 145.75 2140.96 143.92C2139.94 142.09 2139.43 140.005 2139.43 137.665C2139.43 135.325 2139.94 133.24 2140.96 131.41C2141.98 129.58 2143.39 128.17 2145.19 127.18C2146.99 126.16 2149 125.65 2151.22 125.65C2153.14 125.65 2154.87 126.055 2156.4 126.865C2157.96 127.645 2159.23 128.8 2160.22 130.33V125.83H2163.42ZM2151.49 146.89C2153.14 146.89 2154.63 146.515 2155.95 145.765C2157.3 144.985 2158.35 143.89 2159.1 142.48C2159.88 141.07 2160.27 139.465 2160.27 137.665C2160.27 135.865 2159.88 134.26 2159.1 132.85C2158.35 131.44 2157.3 130.36 2155.95 129.61C2154.63 128.83 2153.14 128.44 2151.49 128.44C2149.81 128.44 2148.3 128.83 2146.95 129.61C2145.63 130.36 2144.58 131.44 2143.8 132.85C2143.05 134.26 2142.67 135.865 2142.67 137.665C2142.67 139.465 2143.05 141.07 2143.8 142.48C2144.58 143.89 2145.63 144.985 2146.95 145.765C2148.3 146.515 2149.81 146.89 2151.49 146.89ZM2184.51 125.65C2186.73 125.65 2188.74 126.16 2190.54 127.18C2192.34 128.17 2193.75 129.58 2194.77 131.41C2195.79 133.24 2196.3 135.325 2196.3 137.665C2196.3 140.005 2195.79 142.09 2194.77 143.92C2193.75 145.75 2192.34 147.175 2190.54 148.195C2188.74 149.215 2186.73 149.725 2184.51 149.725C2182.53 149.725 2180.74 149.305 2179.15 148.465C2177.59 147.625 2176.33 146.41 2175.37 144.82V149.5H2172.31V116.11H2175.51V130.33C2176.5 128.8 2177.76 127.645 2179.29 126.865C2180.85 126.055 2182.59 125.65 2184.51 125.65ZM2184.28 146.89C2185.93 146.89 2187.43 146.515 2188.78 145.765C2190.13 144.985 2191.18 143.89 2191.93 142.48C2192.71 141.07 2193.1 139.465 2193.1 137.665C2193.1 135.865 2192.71 134.26 2191.93 132.85C2191.18 131.44 2190.13 130.36 2188.78 129.61C2187.43 128.83 2185.93 128.44 2184.28 128.44C2182.6 128.44 2181.09 128.83 2179.74 129.61C2178.42 130.36 2177.37 131.44 2176.59 132.85C2175.84 134.26 2175.46 135.865 2175.46 137.665C2175.46 139.465 2175.84 141.07 2176.59 142.48C2177.37 143.89 2178.42 144.985 2179.74 145.765C2181.09 146.515 2182.6 146.89 2184.28 146.89ZM2202.81 125.83H2206.01V149.5H2202.81V125.83ZM2204.43 120.655C2203.77 120.655 2203.22 120.43 2202.77 119.98C2202.32 119.53 2202.09 118.99 2202.09 118.36C2202.09 117.76 2202.32 117.235 2202.77 116.785C2203.22 116.335 2203.77 116.11 2204.43 116.11C2205.09 116.11 2205.65 116.335 2206.1 116.785C2206.55 117.205 2206.77 117.715 2206.77 118.315C2206.77 118.975 2206.55 119.53 2206.1 119.98C2205.65 120.43 2205.09 120.655 2204.43 120.655ZM2221.56 149.725C2219.43 149.725 2217.78 149.125 2216.61 147.925C2215.47 146.725 2214.9 145.06 2214.9 142.93V116.11H2218.09V142.66C2218.09 144.07 2218.42 145.15 2219.08 145.9C2219.74 146.62 2220.73 146.98 2222.05 146.98C2222.89 146.98 2223.61 146.845 2224.21 146.575L2224.44 149.23C2223.51 149.56 2222.55 149.725 2221.56 149.725ZM2228.78 125.83H2231.98V149.5H2228.78V125.83ZM2230.4 120.655C2229.74 120.655 2229.19 120.43 2228.74 119.98C2228.29 119.53 2228.06 118.99 2228.06 118.36C2228.06 117.76 2228.29 117.235 2228.74 116.785C2229.19 116.335 2229.74 116.11 2230.4 116.11C2231.06 116.11 2231.62 116.335 2232.07 116.785C2232.52 117.205 2232.74 117.715 2232.74 118.315C2232.74 118.975 2232.52 119.53 2232.07 119.98C2231.62 120.43 2231.06 120.655 2230.4 120.655ZM2252.52 148.06C2251.92 148.6 2251.19 149.02 2250.32 149.32C2249.45 149.59 2248.53 149.725 2247.57 149.725C2245.35 149.725 2243.64 149.125 2242.44 147.925C2241.24 146.725 2240.64 145.03 2240.64 142.84V120.655H2243.84V125.83H2250.99V128.53H2243.84V142.66C2243.84 144.07 2244.18 145.15 2244.87 145.9C2245.56 146.62 2246.57 146.98 2247.89 146.98C2249.33 146.98 2250.5 146.575 2251.4 145.765L2252.52 148.06ZM2279.65 125.83V146.62C2279.65 150.64 2278.73 153.61 2276.9 155.53C2275.07 157.48 2272.31 158.455 2268.62 158.455C2266.55 158.455 2264.59 158.125 2262.73 157.465C2260.9 156.835 2259.41 155.95 2258.27 154.81L2259.89 152.38C2260.91 153.4 2262.17 154.195 2263.67 154.765C2265.17 155.335 2266.78 155.62 2268.49 155.62C2271.22 155.62 2273.23 154.915 2274.52 153.505C2275.81 152.125 2276.45 149.965 2276.45 147.025V144.28C2275.61 145.66 2274.46 146.725 2272.99 147.475C2271.55 148.225 2269.91 148.6 2268.08 148.6C2264.99 148.6 2262.55 147.745 2260.75 146.035C2258.98 144.295 2258.09 141.76 2258.09 138.43V125.83H2261.29V138.115C2261.29 140.605 2261.9 142.495 2263.13 143.785C2264.36 145.075 2266.12 145.72 2268.4 145.72C2270.89 145.72 2272.85 144.97 2274.29 143.47C2275.73 141.94 2276.45 139.825 2276.45 137.125V125.83H2279.65ZM2130.87 178.805C2127.78 177.005 2124.36 175.97 2120.61 175.7V204.5H2117.28V175.7C2113.59 175.94 2110.16 176.975 2106.98 178.805L2105.76 176.195C2109.66 173.885 2114.04 172.73 2118.9 172.73C2123.85 172.73 2128.25 173.885 2132.09 176.195L2130.87 178.805ZM2144.12 201.89C2145.59 201.89 2146.94 201.635 2148.17 201.125C2149.43 200.585 2150.49 199.805 2151.36 198.785L2153.16 200.855C2152.11 202.115 2150.81 203.075 2149.25 203.735C2147.69 204.395 2145.96 204.725 2144.07 204.725C2141.64 204.725 2139.48 204.215 2137.59 203.195C2135.7 202.145 2134.23 200.705 2133.18 198.875C2132.13 197.045 2131.61 194.975 2131.61 192.665C2131.61 190.355 2132.1 188.285 2133.09 186.455C2134.11 184.625 2135.51 183.2 2137.28 182.18C2139.05 181.16 2141.06 180.65 2143.31 180.65C2145.41 180.65 2147.3 181.13 2148.98 182.09C2150.69 183.05 2152.04 184.385 2153.03 186.095C2154.05 187.805 2154.59 189.755 2154.65 191.945L2135.21 195.725C2135.81 197.645 2136.89 199.16 2138.45 200.27C2140.04 201.35 2141.93 201.89 2144.12 201.89ZM2143.31 183.395C2141.66 183.395 2140.17 183.785 2138.85 184.565C2137.56 185.315 2136.54 186.38 2135.79 187.76C2135.07 189.11 2134.71 190.67 2134.71 192.44C2134.71 192.89 2134.73 193.22 2134.76 193.43L2151.45 190.19C2151.09 188.21 2150.18 186.59 2148.71 185.33C2147.24 184.04 2145.44 183.395 2143.31 183.395ZM2167.5 204.725C2165.58 204.725 2163.73 204.455 2161.96 203.915C2160.22 203.345 2158.86 202.64 2157.87 201.8L2159.31 199.28C2160.3 200.06 2161.54 200.705 2163.04 201.215C2164.54 201.695 2166.1 201.935 2167.72 201.935C2169.88 201.935 2171.47 201.605 2172.49 200.945C2173.54 200.255 2174.07 199.295 2174.07 198.065C2174.07 197.195 2173.78 196.52 2173.21 196.04C2172.64 195.53 2171.92 195.155 2171.05 194.915C2170.18 194.645 2169.03 194.39 2167.59 194.15C2165.67 193.79 2164.12 193.43 2162.95 193.07C2161.78 192.68 2160.78 192.035 2159.94 191.135C2159.13 190.235 2158.72 188.99 2158.72 187.4C2158.72 185.42 2159.55 183.8 2161.2 182.54C2162.85 181.28 2165.14 180.65 2168.08 180.65C2169.61 180.65 2171.14 180.86 2172.67 181.28C2174.2 181.67 2175.46 182.195 2176.45 182.855L2175.06 185.42C2173.11 184.07 2170.78 183.395 2168.08 183.395C2166.04 183.395 2164.5 183.755 2163.45 184.475C2162.43 185.195 2161.92 186.14 2161.92 187.31C2161.92 188.21 2162.2 188.93 2162.77 189.47C2163.37 190.01 2164.11 190.415 2164.98 190.685C2165.85 190.925 2167.05 191.18 2168.58 191.45C2170.47 191.81 2171.98 192.17 2173.12 192.53C2174.26 192.89 2175.24 193.505 2176.05 194.375C2176.86 195.245 2177.26 196.445 2177.26 197.975C2177.26 200.045 2176.39 201.695 2174.65 202.925C2172.94 204.125 2170.56 204.725 2167.5 204.725ZM2194.82 203.06C2194.22 203.6 2193.49 204.02 2192.62 204.32C2191.75 204.59 2190.83 204.725 2189.87 204.725C2187.65 204.725 2185.94 204.125 2184.74 202.925C2183.54 201.725 2182.94 200.03 2182.94 197.84V175.655H2186.14V180.83H2193.29V183.53H2186.14V197.66C2186.14 199.07 2186.48 200.15 2187.17 200.9C2187.86 201.62 2188.87 201.98 2190.19 201.98C2191.63 201.98 2192.8 201.575 2193.7 200.765L2194.82 203.06ZM2200.62 180.83H2203.81V204.5H2200.62V180.83ZM2202.24 175.655C2201.58 175.655 2201.02 175.43 2200.57 174.98C2200.12 174.53 2199.9 173.99 2199.9 173.36C2199.9 172.76 2200.12 172.235 2200.57 171.785C2201.02 171.335 2201.58 171.11 2202.24 171.11C2202.9 171.11 2203.45 171.335 2203.9 171.785C2204.35 172.205 2204.58 172.715 2204.58 173.315C2204.58 173.975 2204.35 174.53 2203.9 174.98C2203.45 175.43 2202.9 175.655 2202.24 175.655ZM2224.76 180.65C2227.73 180.65 2230.08 181.52 2231.82 183.26C2233.59 184.97 2234.48 187.475 2234.48 190.775V204.5H2231.28V191.09C2231.28 188.63 2230.67 186.755 2229.44 185.465C2228.21 184.175 2226.45 183.53 2224.17 183.53C2221.62 183.53 2219.6 184.295 2218.1 185.825C2216.63 187.325 2215.89 189.41 2215.89 192.08V204.5H2212.7V180.83H2215.76V185.195C2216.63 183.755 2217.83 182.645 2219.36 181.865C2220.92 181.055 2222.72 180.65 2224.76 180.65ZM2265.16 180.83V201.62C2265.16 205.64 2264.17 208.61 2262.19 210.53C2260.24 212.48 2257.28 213.455 2253.32 213.455C2251.13 213.455 2249.05 213.125 2247.07 212.465C2245.12 211.835 2243.53 210.95 2242.3 209.81L2243.92 207.38C2245.06 208.4 2246.44 209.195 2248.06 209.765C2249.71 210.335 2251.43 210.62 2253.23 210.62C2256.23 210.62 2258.44 209.915 2259.85 208.505C2261.26 207.125 2261.96 204.965 2261.96 202.025V199.01C2260.97 200.51 2259.67 201.65 2258.05 202.43C2256.46 203.21 2254.69 203.6 2252.74 203.6C2250.52 203.6 2248.49 203.12 2246.66 202.16C2244.86 201.17 2243.44 199.805 2242.39 198.065C2241.37 196.295 2240.86 194.3 2240.86 192.08C2240.86 189.86 2241.37 187.88 2242.39 186.14C2243.44 184.4 2244.86 183.05 2246.66 182.09C2248.46 181.13 2250.49 180.65 2252.74 180.65C2254.75 180.65 2256.56 181.055 2258.18 181.865C2259.8 182.675 2261.11 183.845 2262.1 185.375V180.83H2265.16ZM2253.05 200.765C2254.76 200.765 2256.31 200.405 2257.69 199.685C2259.07 198.935 2260.13 197.9 2260.88 196.58C2261.66 195.26 2262.05 193.76 2262.05 192.08C2262.05 190.4 2261.66 188.915 2260.88 187.625C2260.13 186.305 2259.07 185.285 2257.69 184.565C2256.34 183.815 2254.79 183.44 2253.05 183.44C2251.34 183.44 2249.8 183.8 2248.42 184.52C2247.07 185.24 2246 186.26 2245.22 187.58C2244.47 188.9 2244.1 190.4 2244.1 192.08C2244.1 193.76 2244.47 195.26 2245.22 196.58C2246 197.9 2247.07 198.935 2248.42 199.685C2249.8 200.405 2251.34 200.765 2253.05 200.765Z" fill="black"/>
<circle cx="2187.74" cy="323.75" r="45" fill="#7D00FB" stroke="white" stroke-width="22.5"/>
<path d="M2486.87 120.7C2483.78 120.7 2481.47 121.405 2479.94 122.815C2478.44 124.195 2477.69 126.205 2477.69 128.845V133.255H2492.72V136.135H2477.69V149.5H2474.36V128.8C2474.36 125.35 2475.44 122.65 2477.6 120.7C2479.76 118.72 2482.81 117.73 2486.74 117.73C2490.55 117.73 2493.61 118.555 2495.92 120.205L2494.7 122.95C2492.66 121.45 2490.05 120.7 2486.87 120.7ZM2500.15 125.83H2503.35V149.5H2500.15V125.83ZM2501.77 120.655C2501.11 120.655 2500.56 120.43 2500.11 119.98C2499.66 119.53 2499.43 118.99 2499.43 118.36C2499.43 117.76 2499.66 117.235 2500.11 116.785C2500.56 116.335 2501.11 116.11 2501.77 116.11C2502.43 116.11 2502.99 116.335 2503.44 116.785C2503.89 117.205 2504.11 117.715 2504.11 118.315C2504.11 118.975 2503.89 119.53 2503.44 119.98C2502.99 120.43 2502.43 120.655 2501.77 120.655ZM2524.3 125.65C2527.27 125.65 2529.62 126.52 2531.36 128.26C2533.13 129.97 2534.02 132.475 2534.02 135.775V149.5H2530.82V136.09C2530.82 133.63 2530.21 131.755 2528.98 130.465C2527.75 129.175 2525.99 128.53 2523.71 128.53C2521.16 128.53 2519.14 129.295 2517.64 130.825C2516.17 132.325 2515.43 134.41 2515.43 137.08V149.5H2512.24V125.83H2515.3V130.195C2516.17 128.755 2517.37 127.645 2518.9 126.865C2520.46 126.055 2522.26 125.65 2524.3 125.65ZM2564.38 125.83V149.5H2561.32V144.82C2560.36 146.41 2559.08 147.625 2557.49 148.465C2555.93 149.305 2554.16 149.725 2552.18 149.725C2549.96 149.725 2547.95 149.215 2546.15 148.195C2544.35 147.175 2542.94 145.75 2541.92 143.92C2540.9 142.09 2540.39 140.005 2540.39 137.665C2540.39 135.325 2540.9 133.24 2541.92 131.41C2542.94 129.58 2544.35 128.17 2546.15 127.18C2547.95 126.16 2549.96 125.65 2552.18 125.65C2554.1 125.65 2555.83 126.055 2557.36 126.865C2558.92 127.645 2560.19 128.8 2561.18 130.33V125.83H2564.38ZM2552.45 146.89C2554.1 146.89 2555.59 146.515 2556.91 145.765C2558.26 144.985 2559.31 143.89 2560.06 142.48C2560.84 141.07 2561.23 139.465 2561.23 137.665C2561.23 135.865 2560.84 134.26 2560.06 132.85C2559.31 131.44 2558.26 130.36 2556.91 129.61C2555.59 128.83 2554.1 128.44 2552.45 128.44C2550.77 128.44 2549.26 128.83 2547.91 129.61C2546.59 130.36 2545.54 131.44 2544.76 132.85C2544.01 134.26 2543.63 135.865 2543.63 137.665C2543.63 139.465 2544.01 141.07 2544.76 142.48C2545.54 143.89 2546.59 144.985 2547.91 145.765C2549.26 146.515 2550.77 146.89 2552.45 146.89ZM2579.94 149.725C2577.81 149.725 2576.16 149.125 2574.99 147.925C2573.85 146.725 2573.28 145.06 2573.28 142.93V116.11H2576.47V142.66C2576.47 144.07 2576.8 145.15 2577.46 145.9C2578.12 146.62 2579.11 146.98 2580.43 146.98C2581.27 146.98 2581.99 146.845 2582.59 146.575L2582.82 149.23C2581.89 149.56 2580.93 149.725 2579.94 149.725ZM2470.55 173V204.5H2467.26V189.965H2447.55V204.5H2444.22V173H2447.55V187.04H2467.26V173H2470.55ZM2501.76 180.83V204.5H2498.7V199.82C2497.74 201.41 2496.46 202.625 2494.87 203.465C2493.31 204.305 2491.54 204.725 2489.56 204.725C2487.34 204.725 2485.33 204.215 2483.53 203.195C2481.73 202.175 2480.32 200.75 2479.3 198.92C2478.28 197.09 2477.77 195.005 2477.77 192.665C2477.77 190.325 2478.28 188.24 2479.3 186.41C2480.32 184.58 2481.73 183.17 2483.53 182.18C2485.33 181.16 2487.34 180.65 2489.56 180.65C2491.48 180.65 2493.21 181.055 2494.74 181.865C2496.3 182.645 2497.57 183.8 2498.56 185.33V180.83H2501.76ZM2489.83 201.89C2491.48 201.89 2492.97 201.515 2494.29 200.765C2495.64 199.985 2496.69 198.89 2497.44 197.48C2498.22 196.07 2498.61 194.465 2498.61 192.665C2498.61 190.865 2498.22 189.26 2497.44 187.85C2496.69 186.44 2495.64 185.36 2494.29 184.61C2492.97 183.83 2491.48 183.44 2489.83 183.44C2488.15 183.44 2486.64 183.83 2485.29 184.61C2483.97 185.36 2482.92 186.44 2482.14 187.85C2481.39 189.26 2481.01 190.865 2481.01 192.665C2481.01 194.465 2481.39 196.07 2482.14 197.48C2482.92 198.89 2483.97 199.985 2485.29 200.765C2486.64 201.515 2488.15 201.89 2489.83 201.89ZM2522.71 180.65C2525.68 180.65 2528.04 181.52 2529.78 183.26C2531.55 184.97 2532.43 187.475 2532.43 190.775V204.5H2529.24V191.09C2529.24 188.63 2528.62 186.755 2527.39 185.465C2526.16 184.175 2524.41 183.53 2522.13 183.53C2519.58 183.53 2517.55 184.295 2516.05 185.825C2514.58 187.325 2513.85 189.41 2513.85 192.08V204.5H2510.65V180.83H2513.71V185.195C2514.58 183.755 2515.78 182.645 2517.31 181.865C2518.87 181.055 2520.67 180.65 2522.71 180.65ZM2562.8 171.11V204.5H2559.74V199.82C2558.78 201.41 2557.5 202.625 2555.91 203.465C2554.35 204.305 2552.58 204.725 2550.6 204.725C2548.38 204.725 2546.37 204.215 2544.57 203.195C2542.77 202.175 2541.36 200.75 2540.34 198.92C2539.32 197.09 2538.81 195.005 2538.81 192.665C2538.81 190.325 2539.32 188.24 2540.34 186.41C2541.36 184.58 2542.77 183.17 2544.57 182.18C2546.37 181.16 2548.38 180.65 2550.6 180.65C2552.52 180.65 2554.25 181.055 2555.78 181.865C2557.34 182.645 2558.61 183.8 2559.6 185.33V171.11H2562.8ZM2550.87 201.89C2552.52 201.89 2554.01 201.515 2555.33 200.765C2556.68 199.985 2557.73 198.89 2558.48 197.48C2559.26 196.07 2559.65 194.465 2559.65 192.665C2559.65 190.865 2559.26 189.26 2558.48 187.85C2557.73 186.44 2556.68 185.36 2555.33 184.61C2554.01 183.83 2552.52 183.44 2550.87 183.44C2549.19 183.44 2547.68 183.83 2546.33 184.61C2545.01 185.36 2543.96 186.44 2543.18 187.85C2542.43 189.26 2542.05 190.865 2542.05 192.665C2542.05 194.465 2542.43 196.07 2543.18 197.48C2543.96 198.89 2545.01 199.985 2546.33 200.765C2547.68 201.515 2549.19 201.89 2550.87 201.89ZM2581.37 204.725C2579.09 204.725 2577.03 204.215 2575.2 203.195C2573.37 202.145 2571.93 200.705 2570.88 198.875C2569.83 197.045 2569.31 194.975 2569.31 192.665C2569.31 190.355 2569.83 188.285 2570.88 186.455C2571.93 184.625 2573.37 183.2 2575.2 182.18C2577.03 181.16 2579.09 180.65 2581.37 180.65C2583.65 180.65 2585.7 181.16 2587.53 182.18C2589.36 183.2 2590.79 184.625 2591.81 186.455C2592.86 188.285 2593.38 190.355 2593.38 192.665C2593.38 194.975 2592.86 197.045 2591.81 198.875C2590.79 200.705 2589.36 202.145 2587.53 203.195C2585.7 204.215 2583.65 204.725 2581.37 204.725ZM2581.37 201.89C2583.05 201.89 2584.55 201.515 2585.87 200.765C2587.22 199.985 2588.27 198.89 2589.02 197.48C2589.77 196.07 2590.14 194.465 2590.14 192.665C2590.14 190.865 2589.77 189.26 2589.02 187.85C2588.27 186.44 2587.22 185.36 2585.87 184.61C2584.55 183.83 2583.05 183.44 2581.37 183.44C2579.69 183.44 2578.17 183.83 2576.82 184.61C2575.5 185.36 2574.45 186.44 2573.67 187.85C2572.92 189.26 2572.55 190.865 2572.55 192.665C2572.55 194.465 2572.92 196.07 2573.67 197.48C2574.45 198.89 2575.5 199.985 2576.82 200.765C2578.17 201.515 2579.69 201.89 2581.37 201.89ZM2607.2 173.585C2605.82 173.585 2604.77 173.96 2604.05 174.71C2603.36 175.46 2603.01 176.57 2603.01 178.04V180.83H2610.3V183.53H2603.1V204.5H2599.91V177.905C2599.91 175.745 2600.52 174.035 2601.75 172.775C2603.01 171.515 2604.78 170.885 2607.06 170.885C2607.96 170.885 2608.83 171.02 2609.67 171.29C2610.51 171.53 2611.22 171.89 2611.79 172.37L2610.71 174.755C2609.78 173.975 2608.61 173.585 2607.2 173.585ZM2621.92 173.585C2620.54 173.585 2619.49 173.96 2618.77 174.71C2618.08 175.46 2617.73 176.57 2617.73 178.04V180.83H2625.02V183.53H2617.82V204.5H2614.63V177.905C2614.63 175.745 2615.24 174.035 2616.47 172.775C2617.73 171.515 2619.5 170.885 2621.78 170.885C2622.68 170.885 2623.55 171.02 2624.39 171.29C2625.23 171.53 2625.94 171.89 2626.51 172.37L2625.43 174.755C2624.5 173.975 2623.33 173.585 2621.92 173.585Z" fill="black"/>
<circle cx="2531.99" cy="323.75" r="45" fill="#7D00FB" stroke="white" stroke-width="22.5"/>
</svg>
